<mxfile host="app.diagrams.net" modified="2022-08-21T08:50:30.900Z" agent="5.0 (Windows NT 10.0; Win64; x64) AppleWebKit/537.36 (KHTML, like Gecko) Chrome/104.0.0.0 Safari/537.36" etag="V4QWy3zGlKiZIoFbOUu_" version="20.2.5" type="github">
  <diagram id="aIZ5gW9GnfGdU68Y1R8D" name="第 1 页">
    <mxGraphModel dx="1422" dy="800" grid="1" gridSize="10" guides="1" tooltips="1" connect="1" arrows="1" fold="1" page="1" pageScale="1" pageWidth="827" pageHeight="1169" math="0" shadow="0">
      <root>
        <mxCell id="0" />
        <mxCell id="1" parent="0" />
        <mxCell id="CkXTwqjr4xv1SPGr4mUa-2" value="&lt;span style=&quot;color: rgb(50, 50, 50); font-family: 微软雅黑; font-size: 19px; font-style: normal; font-variant-ligatures: normal; font-variant-caps: normal; font-weight: 400; letter-spacing: normal; orphans: 2; text-align: center; text-indent: 0px; text-transform: none; widows: 2; word-spacing: 0px; -webkit-text-stroke-width: 0px; background-color: rgba(255, 255, 255, 0.01); text-decoration-thickness: initial; text-decoration-style: initial; text-decoration-color: initial; float: none; display: inline !important;&quot;&gt;SaaS(Saftware as a service)&lt;/span&gt;" style="text;whiteSpace=wrap;html=1;" vertex="1" parent="1">
          <mxGeometry x="40" y="60" width="280" height="50" as="geometry" />
        </mxCell>
        <mxCell id="CkXTwqjr4xv1SPGr4mUa-4" value="&lt;span style=&quot;color: rgb(50, 50, 50); font-family: 微软雅黑; font-size: 19px; font-style: normal; font-variant-ligatures: normal; font-variant-caps: normal; font-weight: 400; letter-spacing: normal; orphans: 2; text-align: left; text-indent: 0px; text-transform: none; widows: 2; word-spacing: 0px; -webkit-text-stroke-width: 0px; background-color: rgba(255, 255, 255, 0.01); text-decoration-thickness: initial; text-decoration-style: initial; text-decoration-color: initial; float: none; display: inline !important;&quot;&gt;SaaS化服务：随着公司有了一套完整的后台系统，为了拓展新的盈利方向，将已有的后台系统作为标准产品面向外部客户销售&lt;/span&gt;" style="text;whiteSpace=wrap;html=1;" vertex="1" parent="1">
          <mxGeometry x="40" y="100" width="560" height="90" as="geometry" />
        </mxCell>
        <mxCell id="CkXTwqjr4xv1SPGr4mUa-5" value="&lt;span style=&quot;color: rgb(50, 50, 50); font-family: 微软雅黑; font-size: 19px; font-style: normal; font-variant-ligatures: normal; font-variant-caps: normal; font-weight: 400; letter-spacing: normal; orphans: 2; text-align: left; text-indent: 0px; text-transform: none; widows: 2; word-spacing: 0px; -webkit-text-stroke-width: 0px; background-color: rgba(255, 255, 255, 0.01); text-decoration-thickness: initial; text-decoration-style: initial; text-decoration-color: initial; float: none; display: inline !important;&quot;&gt;商业意义：一种收入模式，客户通过互联网进行软件访问，并通常会按每月/年订阅的形式支付费用&lt;/span&gt;" style="text;whiteSpace=wrap;html=1;" vertex="1" parent="1">
          <mxGeometry x="40" y="170" width="560" height="70" as="geometry" />
        </mxCell>
      </root>
    </mxGraphModel>
  </diagram>
</mxfile>
